<?xml version="1.0" encoding="UTF-8" standalone="no"?>
<!-- Created with Inkscape (http://www.inkscape.org/) -->

<svg
   version="1.1"
   id="svg2"
   width="1500"
   height="1500"
   viewBox="0 0 1500 1500"
   sodipodi:docname="SquidGameCryptocurrencyLogo.svg"
   inkscape:version="1.1 (c68e22c387, 2021-05-23)"
   xmlns:inkscape="http://www.inkscape.org/namespaces/inkscape"
   xmlns:sodipodi="http://sodipodi.sourceforge.net/DTD/sodipodi-0.dtd"
   xmlns="http://www.w3.org/2000/svg"
   xmlns:svg="http://www.w3.org/2000/svg">
  <defs
     id="defs6">
    <rect
       x="325.6675"
       y="1176.1875"
       width="858.48746"
       height="243.00572"
       id="rect1887" />
    <rect
       x="193.20946"
       y="982.97802"
       width="1242.9145"
       height="345.58599"
       id="rect3018" />
  </defs>
  <sodipodi:namedview
     id="namedview4"
     pagecolor="#ffffff"
     bordercolor="#666666"
     borderopacity="1.0"
     inkscape:pageshadow="2"
     inkscape:pageopacity="0.0"
     inkscape:pagecheckerboard="0"
     showgrid="false"
     inkscape:zoom="1.0040916"
     inkscape:cx="1136.3505"
     inkscape:cy="850.02205"
     inkscape:window-width="3840"
     inkscape:window-height="2066"
     inkscape:window-x="-11"
     inkscape:window-y="-11"
     inkscape:window-maximized="1"
     inkscape:current-layer="g8" />
  <g
     inkscape:groupmode="layer"
     inkscape:label="Image"
     id="g8">
    <rect
       style="fill:#000000;fill-opacity:1;stroke:none;stroke-width:61.039;stroke-linecap:square;stroke-linejoin:miter;stroke-miterlimit:4;stroke-dasharray:none;stroke-opacity:1"
       id="rect1343"
       width="1500"
       height="1500"
       x="0"
       y="0" />
    <g
       id="g852"
       transform="translate(0,-21.130515)">
      <g
         id="g1518"
         transform="translate(-0.96000792)">
        <path
           style="fill:none;stroke:#ee1e87;stroke-width:40;stroke-linecap:round;stroke-linejoin:round;stroke-miterlimit:4;stroke-dasharray:none;stroke-opacity:1"
           id="path851"
           sodipodi:type="arc"
           sodipodi:cx="342.81903"
           sodipodi:cy="666.66357"
           sodipodi:rx="166.92648"
           sodipodi:ry="166.92648"
           sodipodi:start="0.017453293"
           sodipodi:end="0"
           sodipodi:arc-type="arc"
           d="M 509.72009,669.57684 A 166.92648,166.92648 0 0 1 340.63403,833.57576 166.92648,166.92648 0 0 1 175.8989,665.20688 166.92648,166.92648 0 0 1 343.54738,499.73868 166.92648,166.92648 0 0 1 509.74551,666.66357"
           sodipodi:open="true" />
        <path
           sodipodi:type="star"
           style="fill:none;stroke:#ee1e87;stroke-width:40;stroke-linecap:square;stroke-linejoin:miter;stroke-miterlimit:4;stroke-dasharray:none;stroke-opacity:1"
           id="path1011"
           inkscape:flatsided="true"
           sodipodi:sides="3"
           sodipodi:cx="716.34808"
           sodipodi:cy="729.7536"
           sodipodi:r1="210.0166"
           sodipodi:r2="105.0083"
           sodipodi:arg1="-1.5707963"
           sodipodi:arg2="-0.52359878"
           inkscape:rounded="0"
           inkscape:randomized="0"
           d="m 716.34809,519.737 181.8797,315.02491 -363.75942,-10e-6 z"
           inkscape:transform-center-y="-52.504144"
           inkscape:transform-center-x="1.218013e-05" />
        <rect
           style="fill:none;stroke:#ee1e87;stroke-width:39.1064;stroke-linecap:square;stroke-linejoin:miter;stroke-miterlimit:4;stroke-dasharray:none;stroke-opacity:1"
           id="rect1239"
           width="335.91858"
           height="335.91858"
           x="990.55579"
           y="499.29019" />
      </g>
      <g
         aria-label="SQUID GAME"
         transform="matrix(1.0397797,0,0,1.0314675,-33.308507,-248.18482)"
         id="text1885"
         style="font-weight:bold;font-size:96px;line-height:1.25;font-family:'Liberation Sans';-inkscape-font-specification:'Liberation Sans Bold';white-space:pre;shape-inside:url(#rect1887)">
        <path
           d="m 443.12207,1240.488 q 4.125,4.6875 8.20313,7.0782 4.125,2.3437 8.10937,2.3437 3.70313,0 6.14063,-2.0156 2.4375,-2.0156 2.4375,-5.1094 0,-3.3281 -2.0625,-5.1562 -2.0625,-1.875 -9.46875,-3.9375 -10.03125,-2.6719 -14.25,-7.0782 -4.17188,-4.4062 -4.17188,-11.9531 0,-9.8906 6.60938,-16.0781 6.60937,-6.1875 17.0625,-6.1875 5.57812,0 10.6875,1.5469 5.15625,1.5 9.70312,4.5937 l -5.85937,13.4531 q -3.1875,-2.7187 -6.5625,-4.0781 -3.32813,-1.4062 -6.60938,-1.4062 -3.42187,0 -5.53125,1.5937 -2.0625,1.5938 -2.0625,4.1719 0,2.4844 1.82813,4.0781 1.82812,1.5938 7.17187,3 l 0.84375,0.2344 q 11.4375,3.0937 15.04688,6.7969 2.34375,2.4843 3.65625,6.0468 1.3125,3.5625 1.3125,7.875 0,10.875 -7.17188,17.5313 -7.17187,6.6562 -19.125,6.6562 -7.21875,0 -13.07812,-2.3906 -5.85938,-2.4375 -11.29688,-7.6875 z"
           style="font-family:'Futura Md BT';-inkscape-font-specification:'Futura Md BT Bold';text-align:center;text-anchor:middle;fill:#ffffff"
           id="path15720" />
        <path
           d="m 540.9502,1235.2849 3.5625,4.7344 q 1.45312,-2.25 2.25,-5.1094 0.84375,-2.9062 0.84375,-5.9531 0,-9 -5.10938,-14.8594 -5.0625,-5.8594 -12.84375,-5.8594 -7.59375,0 -12.79687,5.8125 -5.15625,5.8125 -5.15625,14.4375 0,8.7657 5.0625,14.5782 5.10937,5.7656 12.98437,5.7656 0.46875,0 1.03125,-0.047 0.60938,-0.047 1.17188,-0.1875 0.5625,-0.1406 1.17187,-0.3281 0.60938,-0.1875 1.3125,-0.4688 l -9.70312,-12.5156 z m 26.8125,35.4375 h -15.9375 l -7.3125,-9.6094 q -2.95313,1.5469 -6.65625,2.3438 -3.70313,0.8437 -7.92188,0.8437 -5.8125,0 -11.29687,-1.5937 -5.4375,-1.5469 -9.9375,-4.5469 -7.26563,-4.875 -11.53125,-12.7969 -4.21875,-7.9218 -4.21875,-16.9687 0,-7.4063 2.71875,-13.7813 2.76562,-6.4218 8.0625,-11.6718 5.15625,-5.0625 11.8125,-7.7344 6.70312,-2.7188 14.10937,-2.7188 7.45313,0 14.01563,2.7188 6.60937,2.6719 11.8125,7.7344 5.25,5.0156 8.01562,11.5781 2.8125,6.5625 2.8125,13.875 0,7.6406 -2.8125,14.2031 -2.8125,6.5625 -8.25,11.5313 z"
           style="font-family:'Futura Md BT';-inkscape-font-specification:'Futura Md BT Bold';text-align:center;text-anchor:middle;fill:#ffffff"
           id="path15722" />
        <path
           d="m 577.60645,1194.0349 h 18.65625 v 33.375 q 0,7.6406 0.375,10.6875 0.375,3.0469 1.3125,5.4375 0.98437,2.3906 3.70312,3.7969 2.71875,1.4062 6.51563,1.4062 1.875,0 3.51562,-0.3281 1.64063,-0.3281 2.95313,-1.0312 2.71875,-1.4063 3.79687,-4.0313 0.84375,-2.1094 1.21875,-5.4375 0.42188,-3.375 0.42188,-10.5 v -4.6875 -28.6875 h 18.60937 v 36.2813 q 0,5.625 -0.32812,9.7968 -0.32813,4.125 -1.03125,6.8907 -1.35938,5.4375 -4.59375,9.1406 -3.46875,4.125 -9.65625,6.2344 -6.1875,2.1093 -14.90625,2.1093 -8.90625,0 -14.95313,-2.0625 -6.04687,-2.1093 -9.65625,-6.2812 -3.09375,-3.7031 -4.54687,-9.1406 -1.40625,-5.4375 -1.40625,-16.6875 v -7.125 z"
           style="font-family:'Futura Md BT';-inkscape-font-specification:'Futura Md BT Bold';text-align:center;text-anchor:middle;fill:#ffffff"
           id="path15724" />
        <path
           d="m 653.35645,1262.6599 v -68.625 h 18.89062 v 68.625 z"
           style="font-family:'Futura Md BT';-inkscape-font-specification:'Futura Md BT Bold';text-align:center;text-anchor:middle;fill:#ffffff"
           id="path15726" />
        <path
           d="m 687.34082,1262.6599 v -68.625 h 14.29688 q 16.125,0 22.6875,1.5 6.60937,1.5 11.57812,5.0156 6.42188,4.4532 9.84375,11.5782 3.42188,7.125 3.42188,16.2656 0,9.0469 -3.375,16.125 -3.375,7.0781 -9.89063,11.7187 -4.875,3.4219 -11.34375,4.9688 -3.1875,0.7031 -8.10937,1.0781 -4.875,0.375 -11.67188,0.375 h -3.14062 z m 18.51563,-15.375 h 3.14062 q 10.92188,0 16.03125,-4.5 5.10938,-4.5 5.10938,-14.3906 0,-9.7969 -5.10938,-14.3906 -5.0625,-4.6407 -16.03125,-4.6407 h -3.14062 z"
           style="font-family:'Futura Md BT';-inkscape-font-specification:'Futura Md BT Bold';text-align:center;text-anchor:middle;fill:#ffffff"
           id="path15728" />
        <path
           d="m 823.55957,1237.3943 v -14.3906 h 36.75 l 0.0469,1.5468 0.0469,2.4844 q 0,17.7188 -9.375,27.5156 -9.32812,9.75 -26.29687,9.75 -4.125,0 -7.875,-0.6093 -3.70313,-0.6094 -6.98438,-1.875 -6.51562,-2.5313 -11.57812,-7.6875 -4.875,-4.9688 -7.59375,-11.6719 -2.67188,-6.7031 -2.67188,-14.0625 0,-7.7344 2.57813,-14.1563 2.625,-6.4218 7.78125,-11.4843 5.20312,-5.1094 11.95312,-7.6875 6.75,-2.5782 14.39063,-2.5782 10.03125,0 17.8125,3.9844 7.78125,3.9375 13.07812,11.8594 l -16.21875,7.7812 q -2.90625,-3.9843 -6.5625,-5.9062 -3.60937,-1.9688 -8.10937,-1.9688 -8.34375,0 -13.21875,5.625 -2.39063,2.8125 -3.60938,6.6094 -1.21875,3.75 -1.21875,8.6719 0,9.75 4.78125,15.4219 4.82813,5.625 13.26563,5.625 7.125,0 11.85937,-3.4688 4.73438,-3.4687 5.57813,-9.3281 z"
           style="font-family:'Futura Md BT';-inkscape-font-specification:'Futura Md BT Bold';text-align:center;text-anchor:middle;fill:#ffffff"
           id="path15730" />
        <path
           d="m 889.98145,1237.0193 h 18.60937 l -6.98437,-22.6406 -0.89063,-3.3282 -1.45312,-5.9062 q -0.32813,1.4062 -0.60938,2.4844 -0.23437,1.0781 -0.60937,2.3437 l -1.17188,4.4063 z m -26.20313,25.6406 23.67188,-68.625 h 23.4375 l 23.71875,68.625 h -18.60938 l -3.46875,-12.2812 H 885.9502 l -3.5625,12.2812 z"
           style="font-family:'Futura Md BT';-inkscape-font-specification:'Futura Md BT Bold';text-align:center;text-anchor:middle;fill:#ffffff"
           id="path15732" />
        <path
           d="m 1019.8721,1262.6599 h -17.4844 l -4.03125,-29.6719 -0.79688,-6.9843 -0.60937,-8.3907 q -0.65625,4.4532 -2.57813,10.875 l -0.60937,2.0157 -9.32813,32.1562 h -12.46875 l -9.32812,-32.1562 -0.5625,-2.0157 q -1.92188,-6.3281 -2.57813,-10.8281 0,1.9219 -0.1875,3.8438 -0.32812,2.625 -0.46875,3.8906 -0.375,4.2187 -0.89062,7.5937 l -4.03125,29.6719 h -17.39063 l 10.59375,-68.625 h 18.51563 l 10.35937,35.3906 0.375,1.2188 q 1.40625,4.7344 1.82813,8.1094 0,-0.8907 0.14062,-1.5469 0.14063,-0.7031 0.5625,-2.6719 0.46875,-1.9687 1.40625,-5.2031 l 10.45313,-35.2969 h 18.5625 z"
           style="font-family:'Futura Md BT';-inkscape-font-specification:'Futura Md BT Bold';text-align:center;text-anchor:middle;fill:#ffffff"
           id="path15734" />
        <path
           d="m 1029.9502,1262.6599 v -68.625 h 42.0469 v 15.0469 h -23.8125 v 11.9062 h 22.4531 v 14.7188 h -22.4531 v 11.5781 h 23.8125 v 15.375 z"
           style="font-family:'Futura Md BT';-inkscape-font-specification:'Futura Md BT Bold';text-align:center;text-anchor:middle;fill:#ffffff"
           id="path15736" />
      </g>
    </g>
  </g>
</svg>
